<svg id="svg" version="1.1" xmlns="http://www.w3.org/2000/svg" xmlns:xlink="http://www.w3.org/1999/xlink" width="400" height="400" viewBox="0, 0, 400,400"><g id="svgg"><path id="path0" d="M20.800 111.800 L 20.800 120.800 10.397 120.800 L -0.005 120.800 0.097 208.500 L 0.200 296.200 118.776 296.301 C 213.360 296.381,237.416 296.300,237.670 295.901 C 237.909 295.524,237.991 295.549,238.000 296.000 C 238.011 296.526,238.058 296.527,238.385 296.011 C 238.618 295.643,238.613 295.332,238.373 295.183 C 238.129 295.033,237.991 276.679,237.997 245.273 C 238.003 212.170,237.872 195.600,237.603 195.600 C 237.381 195.600,237.560 195.240,238.000 194.800 C 238.440 194.360,238.991 194.000,239.224 194.000 C 239.457 194.000,239.536 193.820,239.400 193.600 C 239.264 193.380,239.442 193.200,239.795 193.200 C 240.148 193.200,240.890 192.747,241.444 192.192 C 241.998 191.638,242.608 191.281,242.798 191.399 C 242.989 191.517,243.428 191.210,243.773 190.718 C 244.118 190.225,244.400 190.038,244.400 190.302 C 244.400 190.668,244.636 190.675,245.387 190.333 C 245.931 190.085,246.261 189.699,246.122 189.474 C 245.968 189.225,246.131 189.165,246.534 189.319 C 246.956 189.481,247.200 189.374,247.200 189.025 C 247.200 188.672,247.486 188.550,248.000 188.684 C 248.611 188.844,248.800 188.696,248.800 188.059 C 248.800 187.489,248.986 187.297,249.390 187.451 C 249.714 187.576,250.267 187.390,250.618 187.039 C 250.970 186.687,251.492 186.400,251.780 186.400 C 252.067 186.400,252.517 186.141,252.780 185.824 C 253.043 185.507,253.547 185.358,253.899 185.493 C 254.381 185.678,254.473 185.568,254.274 185.049 C 254.106 184.612,254.165 184.455,254.434 184.621 C 254.668 184.766,255.251 184.518,255.730 184.072 C 256.208 183.625,256.863 183.201,257.184 183.130 C 257.506 183.058,258.125 182.685,258.560 182.300 C 259.291 181.653,260.083 181.411,260.949 181.569 C 261.141 181.604,261.188 181.346,261.054 180.996 C 260.919 180.645,260.971 180.458,261.168 180.581 C 261.723 180.923,262.800 180.380,262.800 179.757 C 262.800 179.405,263.241 179.200,264.000 179.200 C 264.660 179.200,265.200 179.020,265.200 178.800 C 265.200 178.580,265.481 178.400,265.824 178.400 C 266.167 178.400,266.336 178.220,266.200 178.000 C 266.064 177.780,266.211 177.600,266.527 177.600 C 266.843 177.600,267.312 177.348,267.568 177.039 C 268.138 176.352,271.600 177.254,271.600 178.089 C 271.600 178.307,271.879 178.378,272.221 178.247 C 272.581 178.109,272.738 178.177,272.594 178.409 C 272.458 178.629,272.886 178.917,273.546 179.049 C 274.205 179.181,275.110 179.629,275.556 180.044 C 276.002 180.460,276.554 180.800,276.783 180.800 C 277.012 180.800,277.200 180.991,277.200 181.224 C 277.200 181.457,277.380 181.536,277.600 181.400 C 277.820 181.264,278.000 181.433,278.000 181.776 C 278.000 182.119,278.270 182.400,278.600 182.400 C 278.930 182.400,279.200 182.580,279.200 182.800 C 279.200 183.020,279.515 183.197,279.900 183.194 C 280.498 183.189,280.513 183.131,280.000 182.800 C 279.623 182.556,279.581 182.410,279.886 182.406 C 280.153 182.403,280.574 182.777,280.820 183.238 C 281.107 183.773,281.534 184.006,282.004 183.883 C 282.543 183.742,282.676 183.857,282.503 184.310 C 282.321 184.784,282.465 184.876,283.119 184.705 C 283.597 184.580,283.935 184.661,283.886 184.889 C 283.839 185.113,284.430 185.523,285.200 185.800 C 285.970 186.077,286.548 186.528,286.484 186.801 C 286.412 187.107,286.611 187.205,286.999 187.056 C 287.375 186.912,287.728 187.067,287.871 187.440 C 288.065 187.946,288.177 187.964,288.450 187.534 C 288.723 187.102,288.789 187.100,288.794 187.524 C 288.797 187.817,289.003 187.922,289.262 187.762 C 289.518 187.604,289.616 187.650,289.482 187.867 C 289.350 188.082,289.592 188.558,290.020 188.925 C 290.449 189.292,290.800 189.412,290.800 189.193 C 290.800 188.956,291.115 188.990,291.574 189.277 C 292.000 189.543,292.271 189.885,292.176 190.038 C 291.944 190.414,293.177 190.861,293.646 190.572 C 293.852 190.444,293.970 190.489,293.910 190.670 C 293.849 190.852,293.890 191.008,294.000 191.018 C 294.339 191.049,296.961 192.560,297.675 193.135 C 298.046 193.434,298.542 193.559,298.778 193.414 C 299.561 192.930,299.596 194.039,299.698 223.000 L 299.800 251.800 308.138 251.917 C 313.739 251.996,316.650 251.891,317.003 251.598 C 317.327 251.329,317.619 251.308,317.765 251.543 C 317.912 251.781,318.338 251.765,318.900 251.500 L 319.800 251.075 319.691 223.238 C 319.626 206.740,319.432 195.349,319.213 195.274 C 318.569 195.054,319.255 194.000,320.043 194.000 C 320.462 194.000,320.800 193.722,320.800 193.376 C 320.800 193.033,320.980 192.864,321.200 193.000 C 321.420 193.136,321.600 193.046,321.600 192.800 C 321.600 192.554,321.757 192.450,321.950 192.569 C 322.142 192.688,322.627 192.349,323.027 191.816 C 323.427 191.284,323.899 190.938,324.077 191.048 C 324.255 191.157,324.400 191.035,324.400 190.775 C 324.400 190.433,324.543 190.421,324.919 190.733 C 325.518 191.229,327.802 189.558,327.293 188.996 C 327.132 188.818,327.315 188.786,327.700 188.924 C 328.085 189.062,328.400 189.017,328.400 188.825 C 328.400 188.632,328.760 188.569,329.200 188.684 C 329.765 188.832,330.000 188.696,330.000 188.223 C 330.000 187.854,330.157 187.650,330.348 187.768 C 330.747 188.015,332.493 186.626,332.179 186.312 C 332.065 186.199,332.429 186.193,332.986 186.299 C 333.825 186.460,334.000 186.340,334.000 185.604 C 334.000 184.986,334.179 184.783,334.587 184.940 C 334.910 185.064,335.283 184.990,335.415 184.776 C 335.547 184.562,335.823 184.491,336.028 184.617 C 336.232 184.744,336.599 184.724,336.843 184.574 C 337.157 184.379,337.142 184.211,336.789 183.993 C 336.472 183.797,336.778 183.581,337.641 183.391 C 338.382 183.228,339.365 182.848,339.826 182.546 C 340.287 182.244,340.784 182.088,340.932 182.199 C 341.079 182.309,341.118 182.288,341.017 182.150 C 340.781 181.829,343.466 180.000,344.175 180.000 C 344.472 180.000,344.817 179.733,344.942 179.407 C 345.072 179.069,345.435 178.915,345.785 179.050 C 346.123 179.179,346.400 179.086,346.400 178.843 C 346.400 178.599,346.670 178.400,347.000 178.400 C 347.330 178.400,347.600 178.220,347.600 178.000 C 347.600 177.780,347.915 177.597,348.300 177.594 C 348.898 177.589,348.913 177.531,348.400 177.200 C 347.867 176.855,347.867 176.807,348.400 176.761 C 348.730 176.732,349.485 176.651,350.078 176.580 C 350.858 176.487,351.569 176.830,352.656 177.826 C 353.481 178.582,354.391 179.200,354.678 179.200 C 354.965 179.200,355.200 179.380,355.200 179.600 C 355.200 179.820,355.560 180.000,356.000 180.000 C 356.440 180.000,356.800 180.201,356.800 180.447 C 356.800 180.696,357.153 180.801,357.600 180.684 C 358.040 180.569,358.400 180.651,358.400 180.866 C 358.400 181.429,359.451 182.398,360.071 182.409 C 360.362 182.414,361.039 182.755,361.575 183.167 C 362.112 183.580,362.794 183.824,363.092 183.709 C 363.408 183.588,363.584 183.730,363.516 184.051 C 363.451 184.361,363.697 184.577,364.084 184.547 C 364.461 184.518,364.731 184.698,364.684 184.947 C 364.638 185.196,364.870 185.400,365.200 185.400 C 365.530 185.400,365.956 185.647,366.147 185.948 C 366.440 186.412,366.547 186.412,366.841 185.948 C 367.094 185.549,367.189 185.536,367.194 185.900 C 367.197 186.175,367.481 186.400,367.824 186.400 C 368.167 186.400,368.335 186.582,368.198 186.803 C 367.898 187.289,369.555 187.971,370.400 187.710 C 370.933 187.545,370.933 187.573,370.400 187.962 C 369.891 188.334,369.936 188.437,370.700 188.647 C 371.195 188.782,371.600 189.064,371.600 189.274 C 371.600 189.483,371.960 189.540,372.400 189.400 C 372.957 189.223,373.200 189.328,373.200 189.746 C 373.200 190.301,374.610 191.062,375.300 190.879 C 375.465 190.836,375.600 190.991,375.600 191.224 C 375.600 191.457,375.760 191.549,375.955 191.428 C 376.150 191.307,376.532 191.477,376.804 191.804 C 377.076 192.132,377.546 192.400,377.849 192.400 C 378.152 192.400,378.400 192.591,378.400 192.824 C 378.400 193.057,378.561 193.148,378.758 193.026 C 378.955 192.904,379.214 193.060,379.334 193.371 C 379.454 193.686,379.874 193.854,380.276 193.748 C 380.970 193.567,381.000 194.768,381.000 222.679 L 381.000 251.800 390.484 251.873 L 399.967 251.945 399.992 217.326 L 400.016 182.706 398.980 181.747 C 398.411 181.219,397.796 180.879,397.614 180.991 C 397.433 181.104,397.175 180.911,397.042 180.564 C 396.909 180.217,396.576 180.008,396.303 180.099 C 396.030 180.190,395.566 180.023,395.271 179.728 C 394.977 179.434,394.570 179.295,394.368 179.420 C 394.165 179.545,394.000 179.400,394.000 179.098 C 394.000 178.795,393.357 178.242,392.572 177.867 C 391.625 177.416,391.247 177.357,391.449 177.693 C 391.803 178.282,390.488 177.326,389.670 176.400 C 389.379 176.070,389.255 176.025,389.394 176.300 C 389.533 176.575,389.502 176.799,389.324 176.797 C 388.773 176.793,386.781 175.352,387.010 175.124 C 387.128 175.005,386.680 174.682,386.013 174.405 C 385.346 174.129,384.800 173.734,384.800 173.528 C 384.800 173.322,384.639 173.252,384.442 173.374 C 384.245 173.496,383.973 173.308,383.839 172.956 C 383.701 172.598,383.336 172.416,383.007 172.542 C 382.685 172.665,381.880 172.311,381.219 171.755 C 380.558 171.198,379.833 170.856,379.608 170.995 C 379.384 171.134,379.200 170.967,379.200 170.624 C 379.200 170.281,378.906 170.000,378.547 170.000 C 378.188 170.000,377.603 169.685,377.247 169.300 C 376.891 168.915,376.330 168.541,376.000 168.470 C 375.670 168.398,375.340 168.173,375.267 167.970 C 375.193 167.766,374.878 167.600,374.567 167.600 C 374.255 167.600,373.997 167.375,373.994 167.100 C 373.990 166.767,373.858 166.800,373.600 167.200 C 373.352 167.583,373.210 167.623,373.206 167.310 C 373.200 166.853,371.143 165.540,370.163 165.366 C 369.922 165.324,369.256 164.819,368.681 164.245 C 368.106 163.670,367.287 163.200,366.861 163.200 C 366.435 163.200,365.978 162.919,365.846 162.575 C 365.714 162.231,365.457 162.041,365.276 162.153 C 365.094 162.265,364.471 161.917,363.890 161.379 C 363.310 160.841,362.512 160.346,362.118 160.281 C 361.723 160.215,360.950 159.906,360.400 159.595 C 359.850 159.283,359.250 159.022,359.068 159.014 C 358.885 159.006,358.505 158.685,358.224 158.300 C 357.942 157.915,357.327 157.600,356.856 157.600 C 356.385 157.600,356.000 157.420,356.000 157.200 C 356.000 156.980,355.719 156.800,355.376 156.800 C 355.002 156.800,354.868 156.613,355.042 156.332 C 355.235 156.019,355.115 155.947,354.680 156.114 C 354.262 156.274,353.753 156.013,353.257 155.382 C 352.832 154.842,352.283 154.400,352.037 154.400 C 351.791 154.400,351.233 154.178,350.797 153.906 C 349.955 153.380,347.698 154.344,347.886 155.149 C 347.934 155.352,347.619 155.425,347.186 155.312 C 346.636 155.168,346.400 155.308,346.400 155.777 C 346.400 156.146,346.220 156.336,346.000 156.200 C 345.780 156.064,345.600 156.105,345.600 156.291 C 345.600 156.477,345.246 156.656,344.812 156.689 C 344.379 156.722,343.398 157.375,342.632 158.142 C 341.649 159.124,340.997 159.472,340.419 159.321 C 339.955 159.199,339.600 159.300,339.600 159.553 C 339.600 159.799,339.324 160.000,338.987 160.000 C 338.651 160.000,338.273 160.266,338.148 160.590 C 338.024 160.915,337.396 161.442,336.754 161.763 C 335.997 162.140,335.686 162.179,335.870 161.873 C 336.032 161.603,335.863 161.635,335.477 161.949 C 335.105 162.251,334.800 162.382,334.800 162.240 C 334.800 161.962,332.909 163.095,332.119 163.847 C 331.855 164.099,331.765 164.433,331.919 164.590 C 332.074 164.748,331.930 164.839,331.600 164.795 C 330.746 164.679,329.200 165.228,329.200 165.647 C 329.200 165.841,328.924 166.000,328.587 166.000 C 328.251 166.000,327.876 166.259,327.754 166.575 C 327.633 166.891,327.279 167.052,326.967 166.932 C 326.655 166.812,326.400 166.914,326.400 167.157 C 326.400 167.401,326.029 167.600,325.576 167.600 C 325.123 167.600,324.864 167.780,325.000 168.000 C 325.136 168.220,324.864 168.400,324.395 168.400 C 323.496 168.400,322.400 169.257,322.400 169.959 C 322.400 170.188,322.159 170.282,321.864 170.169 C 321.569 170.056,321.099 170.240,320.819 170.577 C 320.539 170.915,320.162 171.100,319.982 170.989 C 319.802 170.878,319.542 170.970,319.404 171.193 C 319.266 171.417,318.843 171.600,318.465 171.600 C 318.086 171.600,317.517 171.960,317.200 172.400 C 316.883 172.840,316.303 173.200,315.912 173.200 C 315.296 173.200,315.047 173.586,315.126 174.420 C 315.138 174.542,314.349 174.877,313.373 175.165 C 312.398 175.453,311.600 175.859,311.600 176.068 C 311.600 176.276,311.412 176.331,311.182 176.189 C 310.953 176.047,310.329 176.217,309.796 176.566 C 309.264 176.914,308.597 177.197,308.314 177.194 C 307.899 177.189,307.900 177.124,308.319 176.859 C 308.735 176.595,308.719 176.430,308.236 176.030 C 307.906 175.756,307.466 175.636,307.259 175.763 C 307.053 175.891,306.781 175.726,306.654 175.398 C 306.528 175.069,306.049 174.800,305.589 174.800 C 305.129 174.800,304.864 174.620,305.000 174.400 C 305.140 174.173,304.804 174.000,304.224 174.000 C 303.661 174.000,303.200 173.820,303.200 173.600 C 303.200 173.380,302.919 173.200,302.576 173.200 C 302.233 173.200,302.064 173.020,302.200 172.800 C 302.336 172.580,302.167 172.400,301.824 172.400 C 301.481 172.400,301.200 172.220,301.200 172.000 C 301.200 171.780,300.867 171.600,300.459 171.600 C 300.052 171.600,299.107 171.158,298.359 170.619 C 296.839 169.521,293.862 168.000,293.234 168.000 C 293.009 168.000,292.934 167.716,293.067 167.370 C 293.222 166.966,293.110 166.776,292.754 166.839 C 292.099 166.957,290.000 165.999,290.000 165.582 C 290.000 164.937,288.438 164.902,288.267 165.543 C 288.115 166.116,288.087 166.111,288.046 165.500 C 288.021 165.115,287.809 164.800,287.576 164.800 C 287.343 164.800,287.263 164.622,287.397 164.405 C 287.542 164.170,287.363 164.116,286.955 164.273 C 286.452 164.466,286.356 164.394,286.597 164.005 C 286.844 163.605,286.707 163.531,286.040 163.706 C 285.332 163.891,285.244 163.829,285.600 163.400 C 285.956 162.971,285.868 162.909,285.160 163.094 C 284.550 163.254,284.364 163.182,284.561 162.863 C 284.718 162.608,284.672 162.400,284.457 162.400 C 284.242 162.400,283.976 162.625,283.865 162.900 C 283.744 163.199,283.650 163.118,283.632 162.700 C 283.614 162.315,283.409 162.000,283.176 162.000 C 282.943 162.000,282.864 161.820,283.000 161.600 C 283.136 161.380,282.887 161.200,282.447 161.200 C 282.007 161.200,281.528 161.008,281.383 160.773 C 281.238 160.538,280.894 160.432,280.618 160.538 C 280.343 160.643,279.808 160.368,279.429 159.926 C 279.010 159.437,278.439 159.201,277.970 159.324 C 277.528 159.439,277.302 159.359,277.440 159.136 C 277.572 158.921,277.302 158.647,276.840 158.526 C 276.378 158.406,276.000 158.137,276.000 157.930 C 276.000 157.722,275.820 157.664,275.600 157.800 C 275.380 157.936,275.200 157.756,275.200 157.400 C 275.200 157.044,275.019 156.865,274.797 157.002 C 274.576 157.139,274.286 156.969,274.154 156.625 C 274.022 156.281,273.664 156.000,273.357 156.000 C 273.051 156.000,272.800 155.820,272.800 155.600 C 272.800 155.380,272.530 155.200,272.200 155.200 C 271.870 155.200,271.600 154.999,271.600 154.753 C 271.600 154.490,271.180 154.387,270.577 154.502 C 269.824 154.646,269.609 154.553,269.764 154.149 C 269.908 153.774,269.658 153.600,268.975 153.600 C 268.425 153.600,267.872 153.869,267.746 154.198 C 267.619 154.526,267.374 154.707,267.200 154.600 C 267.026 154.493,266.773 154.692,266.639 155.044 C 266.499 155.408,266.137 155.585,265.797 155.454 C 265.468 155.328,265.200 155.399,265.200 155.613 C 265.200 155.826,264.930 156.000,264.600 156.000 C 264.270 156.000,264.000 156.180,264.000 156.400 C 264.000 156.620,263.655 156.800,263.233 156.800 C 262.812 156.800,262.407 156.942,262.333 157.114 C 262.094 157.680,259.692 159.200,259.038 159.200 C 258.687 159.200,258.400 159.470,258.400 159.800 C 258.400 160.130,258.265 160.364,258.100 160.321 C 257.272 160.102,256.057 160.883,256.288 161.486 C 256.459 161.930,256.383 162.036,256.045 161.828 C 255.171 161.288,253.495 161.948,253.787 162.717 C 253.987 163.241,253.937 163.291,253.575 162.931 C 252.988 162.349,252.000 162.685,252.000 163.466 C 252.000 163.786,251.820 163.936,251.600 163.800 C 251.380 163.664,251.200 163.743,251.200 163.976 C 251.200 164.209,251.065 164.379,250.900 164.353 C 250.024 164.214,249.262 164.482,248.492 165.200 C 248.020 165.640,247.356 166.000,247.017 166.000 C 246.678 166.000,246.400 166.180,246.400 166.400 C 246.400 166.620,246.130 166.800,245.800 166.800 C 245.470 166.800,245.200 167.053,245.200 167.363 C 245.200 167.729,244.886 167.867,244.300 167.758 C 243.805 167.666,243.638 167.702,243.928 167.838 C 244.505 168.108,242.762 169.200,241.754 169.200 C 241.449 169.200,241.200 169.464,241.200 169.787 C 241.200 170.162,240.968 170.286,240.560 170.129 C 240.207 169.994,239.764 170.134,239.574 170.442 C 239.384 170.749,239.036 171.000,238.800 171.000 C 238.564 171.000,238.222 171.240,238.041 171.534 C 237.859 171.828,237.551 172.055,237.355 172.039 C 236.663 171.982,235.600 172.459,235.600 172.827 C 235.600 173.032,235.240 173.200,234.800 173.200 C 234.360 173.200,234.000 173.380,234.000 173.600 C 234.000 173.820,233.717 174.000,233.371 174.000 C 232.626 174.000,231.531 174.997,231.886 175.352 C 232.022 175.489,231.678 175.600,231.121 175.600 C 230.129 175.600,228.115 176.865,227.480 177.886 C 227.304 178.169,226.944 178.397,226.680 178.394 C 226.386 178.390,226.433 178.237,226.800 178.000 C 227.313 177.669,227.298 177.611,226.700 177.606 C 226.315 177.603,226.000 177.859,226.000 178.176 C 226.000 178.493,225.792 178.881,225.538 179.038 C 225.227 179.231,225.184 179.141,225.407 178.762 C 225.602 178.430,225.410 178.487,224.937 178.900 C 224.497 179.285,224.003 179.600,223.840 179.600 C 223.417 179.600,222.402 180.669,222.619 180.886 C 222.719 180.985,222.538 181.067,222.218 181.067 C 221.897 181.067,221.727 180.919,221.838 180.738 C 221.950 180.557,221.763 180.516,221.423 180.646 C 221.083 180.777,220.904 181.045,221.026 181.242 C 221.214 181.547,220.743 181.671,219.755 181.577 C 219.421 181.545,218.400 183.557,218.400 184.246 C 218.400 184.551,218.580 184.800,218.800 184.800 C 219.258 184.800,219.381 274.886,218.923 275.344 C 218.771 275.496,218.587 276.010,218.514 276.486 C 218.441 276.962,218.341 277.362,218.291 277.376 C 218.241 277.389,173.468 277.354,118.795 277.298 L 19.390 277.197 18.866 276.357 C 18.577 275.894,18.535 275.636,18.773 275.783 C 19.081 275.974,19.203 256.758,19.198 208.525 L 19.191 141.000 77.268 140.907 C 109.882 140.854,135.445 140.660,135.572 140.463 C 135.698 140.271,136.115 140.162,136.500 140.221 C 136.885 140.281,137.200 140.165,137.200 139.965 C 137.200 139.764,137.461 139.600,137.780 139.600 C 138.099 139.600,138.544 139.285,138.768 138.900 C 138.992 138.515,139.181 138.361,139.188 138.558 C 139.195 138.756,139.605 138.482,140.100 137.951 C 140.595 137.419,141.315 137.046,141.700 137.122 C 142.085 137.197,142.400 137.065,142.400 136.829 C 142.400 136.593,142.760 136.400,143.200 136.400 C 143.640 136.400,144.000 136.263,144.000 136.095 C 144.000 135.927,144.405 135.605,144.900 135.380 C 145.395 135.155,145.751 134.739,145.690 134.456 C 145.630 134.172,145.752 134.047,145.962 134.177 C 146.173 134.307,146.453 134.238,146.585 134.024 C 146.717 133.810,147.119 133.748,147.478 133.885 C 147.915 134.053,148.035 133.981,147.842 133.668 C 147.656 133.367,147.856 133.200,148.405 133.200 C 149.324 133.200,150.520 132.253,150.114 131.848 C 149.978 131.711,150.167 131.600,150.533 131.600 C 150.900 131.600,151.203 131.375,151.206 131.100 C 151.210 130.767,151.342 130.800,151.600 131.200 C 151.858 131.600,151.990 131.633,151.994 131.300 C 151.997 131.025,152.276 130.800,152.613 130.800 C 152.949 130.800,153.324 130.541,153.446 130.225 C 153.567 129.909,153.903 129.741,154.192 129.852 C 154.481 129.963,154.961 129.727,155.258 129.327 C 155.902 128.464,157.476 127.195,157.076 127.863 C 156.867 128.212,157.036 128.213,157.765 127.869 C 158.297 127.618,158.646 127.275,158.542 127.107 C 158.438 126.938,158.858 126.797,159.476 126.794 C 160.349 126.789,160.466 126.701,160.000 126.400 C 159.515 126.086,159.572 126.011,160.300 126.006 C 160.795 126.003,161.200 125.820,161.200 125.600 C 161.200 125.380,161.560 125.200,162.000 125.200 C 162.444 125.200,162.800 124.933,162.800 124.600 C 162.800 124.267,163.156 124.000,163.600 124.000 C 164.040 124.000,164.400 123.837,164.400 123.637 C 164.400 123.438,164.743 123.364,165.161 123.474 C 165.697 123.614,166.007 123.409,166.205 122.784 C 166.426 122.089,166.564 122.016,166.838 122.447 C 167.215 123.044,167.218 123.040,167.366 121.700 C 167.477 120.701,166.502 120.458,165.680 121.280 C 165.311 121.649,165.200 121.650,165.200 121.284 C 165.200 120.919,155.670 120.808,124.326 120.808 C 91.905 120.808,83.382 120.704,83.113 120.304 C 82.926 120.027,82.825 115.975,82.887 111.300 L 83.000 102.800 51.900 102.800 L 20.800 102.800 20.800 111.800 M203.586 103.627 C 203.358 104.052,202.908 104.400,202.586 104.400 C 202.264 104.400,202.000 104.580,202.000 104.800 C 202.000 105.020,201.865 105.179,201.700 105.153 C 200.661 104.989,199.600 105.277,199.600 105.725 C 199.600 106.272,197.910 107.664,196.700 108.114 C 196.315 108.258,196.000 108.188,196.000 107.959 C 196.000 107.730,195.717 107.826,195.371 108.171 C 195.026 108.517,194.565 108.800,194.348 108.800 C 194.131 108.800,194.048 108.954,194.164 109.142 C 194.439 109.587,192.457 110.544,191.300 110.524 C 190.805 110.516,190.400 110.665,190.400 110.855 C 190.400 111.045,190.141 111.200,189.824 111.200 C 189.507 111.200,189.119 111.408,188.962 111.662 C 188.773 111.967,188.854 112.014,189.200 111.800 C 189.540 111.590,189.627 111.633,189.448 111.923 C 189.296 112.168,188.593 112.478,187.886 112.610 L 186.600 112.851 186.703 141.946 L 186.807 171.040 185.407 170.877 C 184.636 170.787,184.106 170.553,184.227 170.357 C 184.348 170.160,184.032 169.987,183.524 169.972 C 182.651 169.945,182.644 169.925,183.400 169.600 C 184.163 169.272,184.159 169.255,183.300 169.228 C 182.805 169.213,182.400 169.020,182.400 168.800 C 182.400 168.580,182.040 168.400,181.600 168.400 C 181.160 168.400,180.800 168.255,180.800 168.079 C 180.800 167.902,179.903 167.317,178.806 166.779 C 177.710 166.240,176.810 165.665,176.806 165.500 C 176.803 165.335,176.339 165.200,175.776 165.200 C 175.196 165.200,174.860 165.027,175.000 164.800 C 175.244 164.404,174.707 164.236,173.660 164.379 C 173.363 164.420,173.227 164.280,173.358 164.069 C 173.583 163.704,173.032 163.320,172.236 163.287 C 172.036 163.278,171.710 162.982,171.511 162.627 C 171.313 162.273,170.981 162.088,170.773 162.217 C 170.565 162.346,170.283 162.162,170.148 161.809 C 170.012 161.455,169.609 161.195,169.251 161.229 C 168.169 161.334,167.597 161.216,167.647 160.900 C 167.759 160.192,167.580 159.487,167.347 159.719 C 167.208 159.858,166.758 159.792,166.347 159.572 C 165.829 159.295,165.600 159.306,165.600 159.610 C 165.600 159.850,165.417 159.934,165.193 159.796 C 164.970 159.658,164.898 159.365,165.034 159.145 C 165.169 158.926,164.902 158.647,164.440 158.526 C 163.978 158.406,163.600 158.148,163.600 157.953 C 163.600 157.759,163.195 157.600,162.700 157.599 C 162.205 157.599,161.188 157.075,160.439 156.435 C 159.650 155.761,158.822 155.370,158.470 155.505 C 158.026 155.676,157.931 155.557,158.118 155.069 C 158.315 154.555,158.146 154.400,157.387 154.400 C 156.844 154.400,156.400 154.220,156.400 154.000 C 156.400 153.780,155.939 153.600,155.376 153.600 C 154.796 153.600,154.460 153.773,154.600 154.000 C 154.736 154.220,154.586 154.400,154.266 154.400 C 153.947 154.400,153.583 154.667,153.458 154.993 C 153.328 155.331,152.965 155.485,152.615 155.350 C 152.276 155.220,152.000 155.326,152.000 155.586 C 152.000 155.845,151.730 156.327,151.400 156.657 C 151.033 157.024,150.800 157.079,150.800 156.800 C 150.800 156.530,150.543 156.600,150.171 156.971 C 149.826 157.317,149.196 157.600,148.771 157.600 C 148.347 157.600,148.045 157.825,148.100 158.100 C 148.161 158.404,147.860 158.553,147.333 158.480 C 146.739 158.399,146.382 158.628,146.197 159.209 C 146.048 159.680,145.698 159.970,145.411 159.860 C 145.127 159.751,144.265 160.089,143.496 160.612 C 142.726 161.135,141.956 161.437,141.785 161.282 C 141.613 161.127,141.590 161.327,141.734 161.726 C 141.945 162.313,141.842 162.404,141.197 162.199 C 140.723 162.049,140.400 162.129,140.400 162.397 C 140.400 162.644,140.234 162.745,140.032 162.620 C 139.830 162.495,139.320 162.829,138.901 163.363 C 138.481 163.897,137.611 164.394,136.969 164.467 C 136.298 164.543,135.843 164.813,135.900 165.100 C 135.955 165.375,135.865 165.579,135.700 165.553 C 134.588 165.377,133.937 165.658,134.153 166.221 C 134.284 166.562,134.258 166.763,134.095 166.668 C 133.623 166.390,131.927 167.158,132.164 167.542 C 132.282 167.733,131.979 167.867,131.490 167.839 C 130.572 167.786,130.021 168.095,128.883 169.300 C 128.520 169.685,127.889 170.000,127.483 170.000 C 126.634 170.000,125.613 170.893,125.572 171.671 C 125.556 171.962,125.389 171.840,125.200 171.400 C 125.011 170.960,124.844 170.825,124.828 171.100 C 124.813 171.375,124.604 171.600,124.364 171.600 C 124.124 171.600,123.629 171.968,123.264 172.418 C 122.899 172.868,122.207 173.265,121.728 173.301 C 121.248 173.337,120.944 173.509,121.051 173.683 C 121.159 173.857,120.886 174.000,120.443 174.000 C 120.001 174.000,119.456 174.315,119.232 174.700 C 119.008 175.085,118.819 175.258,118.812 175.084 C 118.805 174.911,118.406 175.136,117.925 175.584 C 117.443 176.033,116.723 176.400,116.325 176.400 C 115.926 176.400,115.600 176.681,115.600 177.024 C 115.600 177.367,115.425 177.539,115.211 177.407 C 114.818 177.164,112.846 178.239,112.306 178.991 C 112.122 179.246,112.010 179.202,112.006 178.871 C 112.001 178.451,111.885 178.458,111.434 178.909 C 111.123 179.220,110.303 179.709,109.613 179.995 C 108.763 180.347,108.432 180.708,108.588 181.114 C 108.778 181.609,108.713 181.625,108.209 181.208 C 107.792 180.862,107.600 180.844,107.600 181.151 C 107.600 181.398,107.317 181.600,106.971 181.600 C 105.173 181.600,105.205 181.046,105.215 211.668 C 105.220 227.581,105.354 240.780,105.512 241.001 C 105.670 241.221,106.340 241.671,107.000 242.000 C 107.660 242.329,108.315 242.757,108.455 242.949 C 108.594 243.142,109.176 243.300,109.747 243.300 C 110.318 243.300,110.688 243.457,110.569 243.650 C 110.450 243.843,110.678 244.003,111.076 244.006 C 111.690 244.011,111.709 244.071,111.200 244.400 C 110.739 244.698,110.877 244.791,111.800 244.800 C 112.723 244.809,112.861 244.902,112.400 245.200 C 111.915 245.514,111.972 245.589,112.700 245.594 C 113.195 245.597,113.600 245.780,113.600 246.000 C 113.600 246.220,113.872 246.400,114.205 246.400 C 114.878 246.400,116.459 247.206,116.855 247.751 C 116.996 247.944,117.309 247.980,117.551 247.830 C 117.827 247.659,117.902 247.789,117.753 248.179 C 117.576 248.640,117.777 248.800,118.534 248.800 C 119.094 248.800,119.672 248.992,119.817 249.227 C 119.962 249.462,120.324 249.561,120.620 249.448 C 120.947 249.322,121.080 249.446,120.959 249.763 C 120.840 250.074,121.254 250.491,121.979 250.791 C 122.651 251.069,123.200 251.455,123.200 251.649 C 123.200 251.842,123.335 251.979,123.500 251.953 C 124.468 251.800,125.613 252.056,125.412 252.380 C 125.283 252.589,125.588 252.976,126.089 253.240 C 126.590 253.504,127.090 253.828,127.200 253.960 C 127.574 254.409,130.998 256.002,131.600 256.007 C 132.133 256.012,132.133 256.055,131.600 256.400 C 130.981 256.800,131.000 256.807,133.167 256.963 C 133.479 256.985,133.809 257.228,133.901 257.502 C 133.992 257.776,134.288 258.000,134.558 258.000 C 134.828 258.000,135.443 258.367,135.925 258.816 C 136.406 259.264,136.800 259.537,136.800 259.422 C 136.800 259.023,140.071 260.920,140.268 261.433 C 140.377 261.717,140.720 261.852,141.030 261.733 C 141.340 261.614,141.704 261.806,141.839 262.158 C 141.975 262.511,142.527 262.800,143.066 262.800 C 143.611 262.800,143.938 262.976,143.803 263.195 C 143.663 263.422,143.823 263.489,144.179 263.353 C 144.576 263.200,144.800 263.338,144.800 263.734 C 144.800 264.133,145.078 264.301,145.577 264.204 C 146.152 264.094,146.290 264.220,146.109 264.692 C 145.923 265.178,146.056 265.279,146.676 265.117 C 147.686 264.852,148.800 265.443,148.800 266.243 C 148.800 266.576,148.953 266.752,149.141 266.636 C 149.329 266.520,149.824 266.684,150.241 267.000 C 150.658 267.316,151.225 267.580,151.500 267.587 C 151.775 267.594,152.347 267.915,152.771 268.300 C 154.564 269.927,154.644 269.954,156.351 269.521 C 157.258 269.291,158.000 268.871,158.000 268.589 C 158.000 268.259,158.310 268.156,158.863 268.300 C 159.454 268.455,159.635 268.380,159.439 268.063 C 159.269 267.788,159.406 267.600,159.776 267.600 C 160.119 267.600,160.403 267.375,160.406 267.100 C 160.410 266.767,160.542 266.800,160.800 267.200 C 161.058 267.600,161.190 267.633,161.194 267.300 C 161.197 267.025,161.582 266.800,162.049 266.800 C 162.796 266.800,162.832 266.719,162.349 266.123 C 161.959 265.643,161.947 265.535,162.308 265.752 C 162.615 265.936,163.303 265.648,164.042 265.026 C 164.716 264.459,165.432 264.096,165.634 264.221 C 165.835 264.345,166.000 264.246,166.000 264.000 C 166.000 263.754,166.168 263.656,166.372 263.783 C 166.577 263.909,166.853 263.838,166.985 263.624 C 167.117 263.410,167.474 263.330,167.777 263.446 C 168.101 263.571,168.436 263.317,168.591 262.829 C 168.762 262.290,169.194 262.000,169.827 262.000 C 170.425 262.000,170.800 261.769,170.800 261.400 C 170.800 261.070,170.980 260.778,171.200 260.750 C 171.420 260.723,171.780 260.655,172.000 260.600 C 172.220 260.545,172.689 260.478,173.043 260.450 C 173.431 260.420,173.597 260.170,173.463 259.820 C 173.307 259.413,173.433 259.314,173.886 259.488 C 174.316 259.653,174.435 259.580,174.242 259.268 C 174.050 258.957,174.297 258.800,174.976 258.800 C 175.539 258.800,176.000 258.620,176.000 258.400 C 176.000 258.180,176.341 258.000,176.757 258.000 C 177.174 258.000,177.618 257.730,177.745 257.400 C 177.871 257.070,178.346 256.800,178.800 256.800 C 179.254 256.800,179.733 256.520,179.864 256.177 C 179.996 255.834,180.348 255.648,180.647 255.763 C 180.946 255.877,181.148 255.758,181.095 255.498 C 181.039 255.220,181.453 255.039,182.100 255.058 C 182.797 255.078,183.200 254.883,183.200 254.524 C 183.200 254.213,183.740 253.770,184.400 253.540 C 185.060 253.310,185.600 252.949,185.600 252.737 C 185.600 252.526,185.781 252.465,186.003 252.602 C 186.225 252.739,186.689 252.568,187.035 252.222 C 187.381 251.876,187.815 251.685,187.998 251.799 C 188.182 251.912,188.423 251.779,188.534 251.502 C 188.646 251.226,188.751 251.180,188.768 251.400 C 188.812 251.959,205.342 251.773,205.529 251.212 C 205.606 250.983,205.861 250.914,206.097 251.060 C 206.381 251.235,206.438 250.999,206.266 250.363 C 206.007 249.403,205.924 105.937,206.181 103.960 C 206.355 102.621,204.267 102.353,203.586 103.627 M21.498 116.279 C 21.426 118.436,21.367 116.780,21.367 112.600 C 21.366 108.420,21.425 106.656,21.498 108.679 C 21.570 110.703,21.571 114.123,21.498 116.279 M156.457 176.800 C 156.922 176.800,157.137 176.978,156.980 177.233 C 156.810 177.507,157.057 177.617,157.656 177.533 C 158.250 177.449,158.563 177.585,158.500 177.900 C 158.442 178.192,158.811 178.400,159.386 178.400 C 159.962 178.400,160.550 178.732,160.800 179.200 C 161.035 179.640,161.542 180.000,161.925 180.000 C 162.308 180.000,163.174 180.504,163.849 181.121 C 164.524 181.737,165.284 182.172,165.538 182.087 C 165.792 182.003,166.000 182.218,166.000 182.567 C 166.000 182.927,166.335 183.200,166.776 183.200 C 167.203 183.200,167.664 183.380,167.800 183.600 C 167.936 183.820,168.407 184.000,168.847 184.000 C 169.287 184.000,169.536 184.180,169.400 184.400 C 169.264 184.620,169.433 184.800,169.776 184.800 C 170.119 184.800,170.400 184.988,170.400 185.218 C 170.400 185.447,170.625 185.606,170.900 185.570 C 171.846 185.447,172.447 185.601,172.252 185.915 C 172.145 186.088,172.630 186.482,173.329 186.791 C 174.028 187.099,174.848 187.597,175.152 187.898 C 175.455 188.200,175.935 188.357,176.218 188.248 C 176.502 188.140,176.840 188.328,176.970 188.667 C 177.107 189.024,177.466 189.183,177.824 189.046 C 178.164 188.916,178.344 188.967,178.225 189.159 C 177.896 189.692,179.106 190.522,179.816 190.249 C 180.160 190.117,180.337 190.178,180.210 190.385 C 179.920 190.852,181.474 191.725,182.008 191.395 C 182.224 191.262,182.400 191.453,182.400 191.819 C 182.400 192.252,182.614 192.404,183.009 192.252 C 183.346 192.123,183.978 192.378,184.424 192.824 C 184.867 193.267,185.430 193.505,185.676 193.353 C 185.932 193.195,186.013 193.256,185.864 193.496 C 185.721 193.727,185.866 194.017,186.186 194.139 C 187.360 194.590,187.012 230.000,185.834 230.000 C 185.569 230.000,185.004 230.283,184.576 230.630 C 184.149 230.976,184.070 231.121,184.400 230.953 C 184.917 230.689,184.924 230.741,184.451 231.323 C 183.870 232.040,183.394 232.257,183.783 231.628 C 183.909 231.423,183.830 231.142,183.607 231.004 C 183.383 230.866,183.200 230.943,183.200 231.176 C 183.200 231.409,182.919 231.600,182.576 231.600 C 182.233 231.600,182.067 231.784,182.206 232.010 C 182.345 232.235,182.311 232.394,182.130 232.363 C 180.801 232.132,179.929 232.433,180.374 232.969 C 180.760 233.434,180.701 233.499,180.045 233.328 C 179.520 233.190,178.885 233.479,178.197 234.167 C 177.620 234.744,176.999 235.123,176.816 235.010 C 176.633 234.897,176.382 235.071,176.257 235.396 C 176.117 235.761,175.771 235.887,175.350 235.725 C 174.889 235.548,174.762 235.615,174.958 235.932 C 175.133 236.216,174.992 236.400,174.600 236.400 C 174.189 236.400,174.062 236.582,174.253 236.900 C 174.428 237.191,174.239 237.150,173.800 236.800 C 173.361 236.450,173.172 236.409,173.347 236.700 C 173.516 236.982,173.450 237.200,173.195 237.200 C 172.946 237.200,172.471 237.472,172.139 237.804 C 171.807 238.136,171.370 238.305,171.168 238.180 C 170.965 238.055,170.800 238.143,170.800 238.376 C 170.800 238.609,170.538 238.800,170.218 238.800 C 169.898 238.800,169.177 239.260,168.615 239.822 C 168.050 240.386,167.388 240.716,167.135 240.560 C 166.868 240.395,166.785 240.452,166.936 240.696 C 167.230 241.172,166.121 241.722,165.564 241.378 C 165.364 241.254,165.200 241.343,165.200 241.576 C 165.200 241.809,164.930 242.000,164.600 242.000 C 164.270 242.000,164.000 242.160,164.000 242.357 C 164.000 242.553,163.534 242.830,162.964 242.973 C 162.312 243.137,162.005 243.435,162.136 243.777 C 162.268 244.120,162.097 244.285,161.672 244.222 C 161.303 244.168,160.762 244.410,160.470 244.761 C 160.179 245.113,160.053 245.177,160.191 244.905 C 160.353 244.584,160.231 244.490,159.846 244.638 C 159.518 244.763,159.349 245.123,159.470 245.438 C 159.628 245.850,159.494 245.934,158.987 245.740 C 158.538 245.567,158.097 245.726,157.768 246.177 C 157.483 246.566,157.016 246.805,156.729 246.710 C 156.442 246.614,155.968 246.775,155.675 247.068 C 155.382 247.361,154.931 247.586,154.671 247.568 C 154.340 247.546,154.348 247.477,154.700 247.335 C 155.234 247.120,155.403 246.368,154.900 246.447 C 154.029 246.585,153.181 246.355,153.379 246.035 C 153.503 245.834,153.064 245.430,152.402 245.137 C 151.741 244.844,151.200 244.458,151.200 244.279 C 151.200 244.099,151.039 244.052,150.842 244.174 C 150.380 244.460,148.328 243.406,148.673 243.061 C 148.816 242.917,148.543 242.800,148.067 242.800 C 147.590 242.800,147.197 242.575,147.194 242.300 C 147.189 241.908,147.121 241.906,146.876 242.291 C 146.646 242.652,146.413 242.573,145.994 241.991 C 145.680 241.556,145.186 241.200,144.895 241.200 C 144.604 241.200,143.980 240.840,143.508 240.400 C 143.036 239.960,142.413 239.600,142.125 239.600 C 141.836 239.600,141.600 239.390,141.600 239.133 C 141.600 238.877,141.479 238.787,141.332 238.935 C 141.184 239.082,140.639 238.925,140.121 238.585 C 139.602 238.245,138.975 238.092,138.727 238.245 C 138.479 238.398,138.378 238.359,138.503 238.157 C 138.833 237.623,137.730 236.273,137.220 236.588 C 136.982 236.735,136.908 237.051,137.055 237.289 C 137.217 237.551,137.137 237.608,136.855 237.434 C 136.598 237.275,136.491 236.977,136.617 236.772 C 136.744 236.568,136.646 236.400,136.400 236.400 C 136.154 236.400,136.064 236.220,136.200 236.000 C 136.336 235.780,136.167 235.600,135.824 235.600 C 135.481 235.600,135.200 235.401,135.200 235.157 C 135.200 234.914,134.930 234.818,134.600 234.945 C 134.227 235.088,134.000 234.942,134.000 234.558 C 134.000 234.183,133.726 233.998,133.300 234.085 C 132.915 234.164,132.378 233.953,132.108 233.615 C 131.671 233.070,131.570 233.068,131.214 233.600 C 130.859 234.131,130.812 234.130,130.806 233.588 C 130.803 233.252,130.418 232.712,129.951 232.388 C 129.484 232.065,128.895 231.620,128.641 231.400 C 128.388 231.180,127.917 230.941,127.594 230.868 C 127.272 230.795,126.916 230.596,126.804 230.425 C 126.692 230.253,126.285 230.162,125.900 230.221 C 125.515 230.281,125.200 230.155,125.200 229.941 C 125.200 229.727,124.975 229.680,124.700 229.835 C 124.300 230.061,124.300 230.010,124.700 229.579 C 125.084 229.165,125.200 224.937,125.200 211.296 C 125.200 200.954,125.349 193.645,125.558 193.774 C 125.755 193.896,126.024 193.715,126.155 193.372 C 126.287 193.030,126.585 192.867,126.818 193.011 C 127.052 193.156,127.548 192.941,127.921 192.534 C 128.576 191.820,129.840 191.116,131.300 190.649 C 131.685 190.526,132.000 190.149,132.000 189.813 C 132.000 189.476,132.191 189.200,132.424 189.200 C 132.657 189.200,132.736 189.380,132.600 189.600 C 132.464 189.820,132.500 190.000,132.680 190.000 C 132.860 190.000,133.223 189.655,133.487 189.233 C 133.801 188.729,134.246 188.539,134.783 188.680 C 135.363 188.831,135.600 188.701,135.600 188.229 C 135.600 187.818,135.867 187.610,136.300 187.682 C 136.722 187.753,136.954 187.582,136.884 187.251 C 136.812 186.913,136.992 186.788,137.352 186.926 C 137.673 187.050,138.421 186.702,139.013 186.153 C 139.605 185.605,140.186 185.252,140.304 185.371 C 140.422 185.489,140.852 185.201,141.259 184.732 C 141.667 184.262,142.000 184.017,142.000 184.188 C 142.000 184.358,142.274 184.270,142.610 183.992 C 142.945 183.714,143.324 183.591,143.452 183.719 C 143.763 184.029,144.767 183.084,144.534 182.700 C 144.435 182.535,144.621 182.400,144.948 182.400 C 145.275 182.400,145.785 182.175,146.081 181.900 C 146.377 181.625,146.795 181.368,147.010 181.329 C 148.011 181.146,149.343 180.444,148.800 180.385 C 148.470 180.350,148.650 180.187,149.200 180.025 C 149.750 179.862,150.164 179.547,150.120 179.324 C 150.075 179.098,150.517 178.995,151.120 179.091 C 151.967 179.225,152.070 179.171,151.600 178.837 C 151.125 178.501,151.272 178.411,152.300 178.406 C 153.344 178.401,153.600 178.238,153.600 177.576 C 153.600 177.123,153.769 176.857,153.976 176.985 C 154.183 177.113,154.588 176.961,154.876 176.648 C 155.164 176.335,155.460 176.241,155.533 176.439 C 155.607 176.638,156.022 176.800,156.457 176.800 " stroke="none" fill="#ffffff" fill-rule="evenodd"></path><path id="path1" d="M205.600 103.644 C 205.104 104.001,205.128 104.034,205.745 103.833 C 206.307 103.650,206.430 103.745,206.247 104.223 C 205.809 105.364,205.956 249.716,206.396 250.156 C 206.668 250.428,206.800 226.520,206.800 176.880 C 206.800 136.356,206.665 103.203,206.500 103.206 C 206.335 103.209,205.930 103.406,205.600 103.644 M21.367 112.600 C 21.367 116.780,21.426 118.436,21.498 116.279 C 21.571 114.123,21.570 110.703,21.498 108.679 C 21.425 106.656,21.366 108.420,21.367 112.600 M82.967 112.600 C 82.967 116.780,83.026 118.436,83.098 116.279 C 83.171 114.123,83.170 110.703,83.098 108.679 C 83.025 106.656,82.966 108.420,82.967 112.600 M198.000 106.800 C 197.683 107.240,197.103 107.600,196.712 107.600 C 196.320 107.600,196.000 107.763,196.000 107.963 C 196.000 108.529,197.280 108.042,198.600 106.975 C 199.362 106.358,199.577 106.003,199.188 106.002 C 198.852 106.001,198.317 106.360,198.000 106.800 M193.648 109.100 C 193.433 109.485,193.154 109.755,193.028 109.700 C 192.487 109.463,192.133 109.638,192.133 110.143 C 192.133 110.579,192.351 110.561,193.235 110.054 C 193.841 109.706,194.260 109.297,194.166 109.145 C 194.072 108.993,194.221 108.777,194.498 108.666 C 194.864 108.518,194.870 108.455,194.520 108.432 C 194.256 108.414,193.863 108.715,193.648 109.100 M186.589 142.800 C 186.589 157.870,186.639 164.035,186.700 156.500 C 186.761 148.965,186.761 136.635,186.700 129.100 C 186.639 121.565,186.589 127.730,186.589 142.800 M164.400 123.613 C 164.400 123.826,164.040 124.000,163.600 124.000 C 163.160 124.000,162.800 124.180,162.800 124.400 C 162.800 124.946,163.312 124.902,164.571 124.249 C 165.395 123.821,165.495 123.645,165.016 123.462 C 164.677 123.332,164.400 123.399,164.400 123.613 M156.229 128.209 C 155.805 128.529,155.594 128.927,155.759 129.093 C 155.925 129.258,156.238 129.076,156.455 128.688 C 156.672 128.300,157.046 128.105,157.286 128.253 C 157.549 128.415,157.609 128.339,157.438 128.062 C 157.094 127.504,157.173 127.495,156.229 128.209 M151.200 131.133 C 151.200 131.390,150.919 131.600,150.576 131.600 C 150.226 131.600,150.072 131.792,150.224 132.038 C 150.408 132.337,150.695 132.277,151.124 131.848 C 151.469 131.502,151.628 131.095,151.476 130.943 C 151.324 130.791,151.200 130.877,151.200 131.133 M140.267 137.700 C 139.863 138.122,139.609 138.543,139.702 138.636 C 139.795 138.729,140.199 138.443,140.600 138.000 C 141.539 136.962,141.235 136.688,140.267 137.700 M135.600 140.437 C 135.600 140.605,135.285 140.824,134.900 140.924 C 134.356 141.066,134.339 141.118,134.824 141.154 C 135.166 141.179,135.775 140.960,136.176 140.667 C 136.808 140.205,136.819 140.133,136.253 140.133 C 135.894 140.133,135.600 140.270,135.600 140.437 M19.062 141.100 C 18.894 141.371,58.677 141.370,113.200 141.096 C 124.530 141.039,108.026 140.949,76.524 140.896 C 45.022 140.843,19.164 140.935,19.062 141.100 M150.668 156.634 C 150.802 156.982,151.023 157.117,151.160 156.934 C 151.297 156.750,151.572 156.465,151.771 156.300 C 151.970 156.135,151.749 156.000,151.279 156.000 C 150.664 156.000,150.493 156.177,150.668 156.634 M277.333 158.900 C 277.333 159.175,277.753 159.400,278.267 159.400 C 279.338 159.400,279.497 159.000,278.567 158.643 C 277.628 158.282,277.333 158.344,277.333 158.900 M340.800 158.784 C 340.033 158.978,339.948 159.094,340.436 159.281 C 340.786 159.416,341.321 159.372,341.625 159.185 C 342.411 158.699,341.974 158.486,340.800 158.784 M143.878 159.991 C 142.845 160.646,142.000 161.283,142.000 161.406 C 142.000 161.528,142.651 161.186,143.448 160.645 C 144.244 160.104,145.120 159.748,145.396 159.854 C 145.671 159.959,146.004 159.766,146.136 159.423 C 146.480 158.525,145.999 158.646,143.878 159.991 M256.800 160.242 C 256.133 160.651,256.066 160.764,256.600 160.580 C 257.040 160.429,257.625 160.296,257.900 160.286 C 258.175 160.275,258.400 160.117,258.400 159.933 C 258.400 159.454,257.940 159.542,256.800 160.242 M279.677 160.030 C 279.755 160.267,279.991 160.460,280.200 160.460 C 280.409 160.460,280.645 160.267,280.723 160.030 C 280.802 159.793,280.567 159.600,280.200 159.600 C 279.833 159.600,279.598 159.793,279.677 160.030 M337.800 160.400 C 337.402 160.840,336.774 161.200,336.405 161.200 C 336.035 161.200,335.733 161.441,335.733 161.736 C 335.733 162.177,335.934 162.172,336.867 161.707 C 337.490 161.396,338.000 160.969,338.000 160.758 C 338.000 160.547,338.405 160.211,338.900 160.012 C 339.486 159.777,339.577 159.642,339.162 159.625 C 338.811 159.611,338.198 159.960,337.800 160.400 M167.826 160.758 C 167.704 160.955,167.868 161.217,168.189 161.341 C 168.815 161.580,169.348 161.082,168.922 160.656 C 168.561 160.294,168.085 160.339,167.826 160.758 M254.400 161.353 C 254.400 161.438,254.850 161.593,255.400 161.698 C 255.950 161.803,256.400 161.734,256.400 161.545 C 256.400 161.355,255.950 161.200,255.400 161.200 C 254.850 161.200,254.400 161.269,254.400 161.353 M137.944 163.587 C 137.274 164.145,137.175 164.377,137.604 164.387 C 137.936 164.394,138.432 164.040,138.707 163.600 C 139.336 162.593,139.141 162.589,137.944 163.587 M251.076 163.374 C 250.619 163.721,250.508 164.020,250.776 164.185 C 251.009 164.329,251.200 164.246,251.200 164.000 C 251.200 163.754,251.380 163.664,251.600 163.800 C 251.820 163.936,252.000 163.767,252.000 163.424 C 252.000 162.678,251.994 162.678,251.076 163.374 M284.905 163.075 C 285.293 163.177,285.508 163.425,285.384 163.626 C 285.260 163.827,285.438 163.884,285.779 163.753 C 286.746 163.382,286.511 162.979,285.300 162.932 C 284.695 162.908,284.517 162.973,284.905 163.075 M286.618 163.971 C 286.492 164.175,286.751 164.457,287.194 164.598 C 287.637 164.739,288.013 165.157,288.028 165.527 C 288.051 166.064,288.119 166.038,288.368 165.400 C 288.794 164.309,287.209 163.015,286.618 163.971 M368.882 164.383 C 369.158 164.824,369.602 165.269,369.871 165.372 C 370.626 165.662,370.083 164.645,369.183 164.082 C 368.443 163.620,368.420 163.643,368.882 164.383 M330.000 164.874 C 330.000 165.079,330.165 165.145,330.366 165.021 C 330.567 164.897,330.792 164.958,330.866 165.158 C 330.940 165.358,331.211 165.291,331.469 165.011 C 331.839 164.608,331.733 164.500,330.969 164.500 C 330.436 164.500,330.000 164.668,330.000 164.874 M131.308 167.390 C 130.908 167.845,130.951 167.939,131.541 167.894 C 131.940 167.864,132.267 167.606,132.267 167.320 C 132.267 166.656,131.932 166.681,131.308 167.390 M243.200 168.013 C 243.200 168.226,242.930 168.400,242.600 168.400 C 242.270 168.400,242.000 168.580,242.000 168.800 C 242.000 169.318,242.103 169.307,243.371 168.649 C 244.195 168.221,244.295 168.045,243.816 167.862 C 243.477 167.732,243.200 167.799,243.200 168.013 M128.400 169.024 C 128.400 169.367,128.220 169.536,128.000 169.400 C 127.780 169.264,127.600 169.343,127.600 169.576 C 127.600 170.237,128.156 170.077,128.907 169.200 C 129.480 168.531,129.495 168.400,128.996 168.400 C 128.668 168.400,128.400 168.681,128.400 169.024 M184.200 170.400 C 184.064 170.620,184.334 170.800,184.800 170.800 C 185.266 170.800,185.536 170.620,185.400 170.400 C 185.264 170.180,184.994 170.000,184.800 170.000 C 184.606 170.000,184.336 170.180,184.200 170.400 M312.700 174.847 C 311.875 175.264,311.203 175.830,311.206 176.103 C 311.211 176.460,311.295 176.472,311.506 176.146 C 311.668 175.897,312.568 175.434,313.506 175.119 C 314.444 174.803,315.089 174.422,314.939 174.272 C 314.586 173.919,314.477 173.947,312.700 174.847 M387.045 175.127 C 386.772 175.569,389.099 176.910,389.601 176.599 C 389.820 176.464,390.000 176.500,390.000 176.680 C 390.000 176.860,390.361 177.233,390.801 177.508 C 391.444 177.910,391.583 177.909,391.501 177.504 C 391.407 177.034,390.462 176.437,389.991 176.550 C 389.875 176.577,389.347 176.195,388.815 175.700 C 387.784 174.739,387.368 174.604,387.045 175.127 M115.100 176.502 C 113.835 177.175,112.800 177.899,112.800 178.109 C 112.800 178.320,113.255 178.194,113.811 177.829 C 114.368 177.465,114.998 177.275,115.211 177.407 C 115.425 177.539,115.600 177.367,115.600 177.024 C 115.600 176.681,115.915 176.394,116.300 176.387 C 116.685 176.380,117.349 176.110,117.776 175.787 C 119.120 174.771,117.575 175.184,115.100 176.502 M228.000 176.639 C 227.450 176.947,227.045 177.379,227.100 177.599 C 227.155 177.820,226.990 178.000,226.733 178.000 C 226.477 178.000,226.382 178.116,226.524 178.257 C 226.665 178.398,227.359 177.948,228.066 177.257 C 229.480 175.875,229.473 175.814,228.000 176.639 M350.990 177.048 C 351.347 177.404,351.759 177.574,351.907 177.426 C 352.056 177.278,351.912 176.989,351.588 176.784 C 350.643 176.187,350.287 176.344,350.990 177.048 M159.200 178.787 C 159.200 179.001,159.470 179.071,159.800 178.945 C 160.180 178.799,160.400 178.950,160.400 179.357 C 160.400 179.711,160.586 180.000,160.814 180.000 C 161.095 180.000,161.090 179.742,160.800 179.200 C 160.364 178.384,159.200 178.084,159.200 178.787 M274.003 179.500 C 274.005 179.665,274.455 180.008,275.003 180.262 C 276.158 180.798,276.316 180.528,275.300 179.757 C 274.509 179.157,273.998 179.056,274.003 179.500 M221.733 180.533 C 221.733 180.827,221.965 181.067,222.249 181.067 C 222.533 181.067,222.682 180.932,222.580 180.767 C 222.478 180.603,222.621 180.377,222.898 180.266 C 223.174 180.154,223.025 180.049,222.567 180.032 C 222.108 180.014,221.733 180.240,221.733 180.533 M256.288 183.602 C 255.542 184.189,255.214 184.270,255.066 183.902 C 254.921 183.542,254.854 183.535,254.832 183.876 C 254.788 184.537,255.717 185.049,255.910 184.471 C 255.996 184.212,256.302 184.000,256.591 184.000 C 256.879 184.000,257.218 183.730,257.345 183.400 C 257.646 182.616,257.509 182.642,256.288 183.602 M335.411 184.783 C 335.281 184.993,334.910 185.064,334.587 184.940 C 334.264 184.816,334.000 184.914,334.000 185.157 C 334.000 185.823,335.480 185.690,335.745 185.000 C 336.001 184.332,335.778 184.188,335.411 184.783 M218.400 230.224 C 218.400 260.404,218.534 275.564,218.800 275.400 C 219.063 275.238,219.200 259.663,219.200 229.976 C 219.200 200.125,219.064 184.800,218.800 184.800 C 218.536 184.800,218.400 200.208,218.400 230.224 M284.800 185.991 C 284.800 186.165,285.245 186.392,285.788 186.496 C 286.331 186.599,286.694 186.552,286.594 186.390 C 286.328 185.960,284.800 185.620,284.800 185.991 M288.666 187.933 C 288.740 188.226,288.800 188.541,288.800 188.633 C 288.800 188.725,288.950 188.800,289.133 188.800 C 289.317 188.800,289.467 188.538,289.467 188.218 C 289.467 187.897,289.332 187.718,289.167 187.820 C 289.003 187.922,288.792 187.869,288.700 187.702 C 288.607 187.536,288.592 187.640,288.666 187.933 M176.072 188.308 C 175.741 188.419,175.954 188.698,176.640 189.054 C 177.477 189.489,177.839 189.512,178.168 189.153 C 178.488 188.805,178.454 188.766,178.039 189.002 C 177.694 189.200,177.310 189.094,177.039 188.726 C 176.798 188.398,176.362 188.210,176.072 188.308 M133.596 189.004 C 133.057 189.655,133.480 189.791,134.343 189.244 C 134.672 189.035,134.729 188.804,134.488 188.654 C 134.269 188.519,133.868 188.677,133.596 189.004 M327.400 189.200 C 327.536 189.420,327.457 189.600,327.224 189.600 C 326.991 189.600,326.800 189.782,326.800 190.003 C 326.800 190.247,327.107 190.215,327.574 189.923 C 328.339 189.445,328.327 188.800,327.553 188.800 C 327.333 188.800,327.264 188.980,327.400 189.200 M325.200 190.424 C 325.200 190.657,325.020 190.736,324.800 190.600 C 324.580 190.464,324.400 190.554,324.400 190.800 C 324.400 191.046,324.220 191.136,324.000 191.000 C 323.780 190.864,323.600 190.943,323.600 191.176 C 323.600 191.717,324.672 191.730,325.004 191.193 C 325.142 190.970,325.421 190.889,325.623 191.014 C 325.825 191.139,325.884 190.962,325.753 190.621 C 325.478 189.906,325.200 189.806,325.200 190.424 M237.900 194.833 C 237.515 195.255,237.381 195.600,237.603 195.600 C 237.872 195.600,238.004 212.046,238.000 244.900 C 237.997 272.015,237.995 294.425,237.997 294.700 C 237.999 294.975,238.181 295.200,238.403 295.200 C 238.671 295.200,238.803 278.315,238.797 244.600 C 238.792 216.770,238.746 194.015,238.694 194.033 C 238.642 194.052,238.285 194.412,237.900 194.833 M319.004 194.793 C 318.866 195.017,318.942 195.200,319.174 195.200 C 319.463 195.200,319.627 203.792,319.700 222.700 L 319.806 250.200 319.903 222.524 C 319.993 196.907,319.878 193.379,319.004 194.793 M186.583 212.000 C 186.583 221.130,186.635 224.865,186.700 220.300 C 186.764 215.735,186.764 208.265,186.700 203.700 C 186.635 199.135,186.583 202.870,186.583 212.000 M183.969 230.300 C 183.953 230.465,183.877 230.925,183.802 231.322 C 183.691 231.903,183.775 231.953,184.228 231.577 C 184.538 231.320,184.702 230.965,184.593 230.789 C 184.484 230.613,184.621 230.377,184.898 230.266 C 185.201 230.144,185.122 230.051,184.700 230.032 C 184.315 230.014,183.986 230.135,183.969 230.300 M138.533 237.782 C 138.533 238.103,138.678 238.275,138.855 238.166 C 139.032 238.056,139.636 238.267,140.196 238.634 C 141.123 239.242,141.191 239.243,140.964 238.650 C 140.827 238.293,140.464 238.000,140.157 238.000 C 139.851 238.000,139.600 237.820,139.600 237.600 C 139.600 237.380,139.360 237.200,139.067 237.200 C 138.773 237.200,138.533 237.462,138.533 237.782 M145.600 241.429 C 145.600 241.554,145.870 241.927,146.200 242.257 C 146.851 242.908,146.933 242.811,146.557 241.833 C 146.329 241.238,145.600 240.930,145.600 241.429 M109.200 243.685 C 109.200 243.858,109.455 244.000,109.767 244.000 C 110.078 244.000,110.393 244.174,110.467 244.387 C 110.552 244.634,110.818 244.636,111.200 244.393 C 111.708 244.071,111.688 244.011,111.076 244.006 C 110.678 244.003,110.457 243.831,110.585 243.624 C 110.713 243.418,110.453 243.276,110.009 243.309 C 109.564 243.343,109.200 243.512,109.200 243.685 M149.346 243.802 C 150.805 244.563,151.175 244.568,150.176 243.813 C 149.749 243.490,149.130 243.221,148.800 243.215 C 148.470 243.210,148.716 243.474,149.346 243.802 M159.817 244.372 C 159.544 244.814,160.175 245.292,160.544 244.922 C 160.925 244.542,160.854 244.000,160.424 244.000 C 160.217 244.000,159.944 244.168,159.817 244.372 M158.400 245.124 C 158.400 245.339,158.685 245.624,159.033 245.757 C 159.423 245.907,159.606 245.818,159.508 245.525 C 159.309 244.927,158.400 244.598,158.400 245.124 M153.428 245.955 C 153.308 246.150,153.554 246.399,153.975 246.509 C 154.511 246.649,154.676 246.543,154.527 246.155 C 154.286 245.525,153.754 245.428,153.428 245.955 M119.200 249.055 C 119.200 249.799,120.712 250.406,120.960 249.760 C 121.096 249.405,121.021 249.263,120.778 249.414 C 120.551 249.554,120.103 249.451,119.782 249.185 C 119.462 248.920,119.200 248.861,119.200 249.055 M192.921 251.898 C 195.077 251.971,198.497 251.970,200.521 251.898 C 202.544 251.825,200.780 251.766,196.600 251.767 C 192.420 251.767,190.764 251.826,192.921 251.898 M180.653 255.391 C 179.934 255.936,179.938 255.955,180.753 255.894 C 181.219 255.858,181.600 255.598,181.600 255.315 C 181.600 254.686,181.582 254.688,180.653 255.391 M147.200 265.300 C 147.200 265.591,147.560 265.829,148.000 265.829 C 148.440 265.829,148.800 265.783,148.800 265.728 C 148.800 265.673,148.440 265.435,148.000 265.200 C 147.388 264.872,147.200 264.896,147.200 265.300 M156.000 269.600 L 155.000 269.920 156.076 269.960 C 156.668 269.982,157.264 269.820,157.400 269.600 C 157.681 269.145,157.420 269.145,156.000 269.600 M18.832 276.300 L 19.392 277.200 118.264 277.200 C 172.643 277.200,217.396 277.300,217.715 277.423 C 218.063 277.556,218.371 277.356,218.484 276.923 C 218.666 276.227,214.949 276.204,119.079 276.302 C 39.707 276.383,19.363 276.301,18.879 275.902 C 18.341 275.457,18.335 275.503,18.832 276.300 " stroke="none" fill="#ffffff" fill-rule="evenodd"></path><path id="path2" d="M205.600 103.644 C 205.104 104.001,205.128 104.034,205.745 103.833 C 206.307 103.650,206.430 103.745,206.247 104.223 C 205.809 105.364,205.956 249.716,206.396 250.156 C 206.668 250.428,206.800 226.520,206.800 176.880 C 206.800 136.356,206.665 103.203,206.500 103.206 C 206.335 103.209,205.930 103.406,205.600 103.644 M21.367 112.600 C 21.367 116.780,21.426 118.436,21.498 116.279 C 21.571 114.123,21.570 110.703,21.498 108.679 C 21.425 106.656,21.366 108.420,21.367 112.600 M82.967 112.600 C 82.967 116.780,83.026 118.436,83.098 116.279 C 83.171 114.123,83.170 110.703,83.098 108.679 C 83.025 106.656,82.966 108.420,82.967 112.600 M198.000 106.800 C 197.683 107.240,197.103 107.600,196.712 107.600 C 196.320 107.600,196.000 107.763,196.000 107.963 C 196.000 108.529,197.280 108.042,198.600 106.975 C 199.362 106.358,199.577 106.003,199.188 106.002 C 198.852 106.001,198.317 106.360,198.000 106.800 M193.648 109.100 C 193.433 109.485,193.154 109.755,193.028 109.700 C 192.487 109.463,192.133 109.638,192.133 110.143 C 192.133 110.579,192.351 110.561,193.235 110.054 C 193.841 109.706,194.260 109.297,194.166 109.145 C 194.072 108.993,194.221 108.777,194.498 108.666 C 194.864 108.518,194.870 108.455,194.520 108.432 C 194.256 108.414,193.863 108.715,193.648 109.100 M186.589 142.800 C 186.589 157.870,186.639 164.035,186.700 156.500 C 186.761 148.965,186.761 136.635,186.700 129.100 C 186.639 121.565,186.589 127.730,186.589 142.800 M164.400 123.613 C 164.400 123.826,164.040 124.000,163.600 124.000 C 163.160 124.000,162.800 124.180,162.800 124.400 C 162.800 124.946,163.312 124.902,164.571 124.249 C 165.395 123.821,165.495 123.645,165.016 123.462 C 164.677 123.332,164.400 123.399,164.400 123.613 M156.229 128.209 C 155.805 128.529,155.594 128.927,155.759 129.093 C 155.925 129.258,156.238 129.076,156.455 128.688 C 156.672 128.300,157.046 128.105,157.286 128.253 C 157.549 128.415,157.609 128.339,157.438 128.062 C 157.094 127.504,157.173 127.495,156.229 128.209 M151.200 131.133 C 151.200 131.390,150.919 131.600,150.576 131.600 C 150.226 131.600,150.072 131.792,150.224 132.038 C 150.408 132.337,150.695 132.277,151.124 131.848 C 151.469 131.502,151.628 131.095,151.476 130.943 C 151.324 130.791,151.200 130.877,151.200 131.133 M140.267 137.700 C 139.863 138.122,139.609 138.543,139.702 138.636 C 139.795 138.729,140.199 138.443,140.600 138.000 C 141.539 136.962,141.235 136.688,140.267 137.700 M135.600 140.437 C 135.600 140.605,135.285 140.824,134.900 140.924 C 134.356 141.066,134.339 141.118,134.824 141.154 C 135.166 141.179,135.775 140.960,136.176 140.667 C 136.808 140.205,136.819 140.133,136.253 140.133 C 135.894 140.133,135.600 140.270,135.600 140.437 M19.062 141.100 C 18.894 141.371,58.677 141.370,113.200 141.096 C 124.530 141.039,108.026 140.949,76.524 140.896 C 45.022 140.843,19.164 140.935,19.062 141.100 M150.668 156.634 C 150.802 156.982,151.023 157.117,151.160 156.934 C 151.297 156.750,151.572 156.465,151.771 156.300 C 151.970 156.135,151.749 156.000,151.279 156.000 C 150.664 156.000,150.493 156.177,150.668 156.634 M277.333 158.900 C 277.333 159.175,277.753 159.400,278.267 159.400 C 279.338 159.400,279.497 159.000,278.567 158.643 C 277.628 158.282,277.333 158.344,277.333 158.900 M340.800 158.784 C 340.033 158.978,339.948 159.094,340.436 159.281 C 340.786 159.416,341.321 159.372,341.625 159.185 C 342.411 158.699,341.974 158.486,340.800 158.784 M143.878 159.991 C 142.845 160.646,142.000 161.283,142.000 161.406 C 142.000 161.528,142.651 161.186,143.448 160.645 C 144.244 160.104,145.120 159.748,145.396 159.854 C 145.671 159.959,146.004 159.766,146.136 159.423 C 146.480 158.525,145.999 158.646,143.878 159.991 M256.800 160.242 C 256.133 160.651,256.066 160.764,256.600 160.580 C 257.040 160.429,257.625 160.296,257.900 160.286 C 258.175 160.275,258.400 160.117,258.400 159.933 C 258.400 159.454,257.940 159.542,256.800 160.242 M279.677 160.030 C 279.755 160.267,279.991 160.460,280.200 160.460 C 280.409 160.460,280.645 160.267,280.723 160.030 C 280.802 159.793,280.567 159.600,280.200 159.600 C 279.833 159.600,279.598 159.793,279.677 160.030 M337.800 160.400 C 337.402 160.840,336.774 161.200,336.405 161.200 C 336.035 161.200,335.733 161.441,335.733 161.736 C 335.733 162.177,335.934 162.172,336.867 161.707 C 337.490 161.396,338.000 160.969,338.000 160.758 C 338.000 160.547,338.405 160.211,338.900 160.012 C 339.486 159.777,339.577 159.642,339.162 159.625 C 338.811 159.611,338.198 159.960,337.800 160.400 M167.826 160.758 C 167.704 160.955,167.868 161.217,168.189 161.341 C 168.815 161.580,169.348 161.082,168.922 160.656 C 168.561 160.294,168.085 160.339,167.826 160.758 M254.400 161.353 C 254.400 161.438,254.850 161.593,255.400 161.698 C 255.950 161.803,256.400 161.734,256.400 161.545 C 256.400 161.355,255.950 161.200,255.400 161.200 C 254.850 161.200,254.400 161.269,254.400 161.353 M137.944 163.587 C 137.274 164.145,137.175 164.377,137.604 164.387 C 137.936 164.394,138.432 164.040,138.707 163.600 C 139.336 162.593,139.141 162.589,137.944 163.587 M251.076 163.374 C 250.619 163.721,250.508 164.020,250.776 164.185 C 251.009 164.329,251.200 164.246,251.200 164.000 C 251.200 163.754,251.380 163.664,251.600 163.800 C 251.820 163.936,252.000 163.767,252.000 163.424 C 252.000 162.678,251.994 162.678,251.076 163.374 M284.905 163.075 C 285.293 163.177,285.508 163.425,285.384 163.626 C 285.260 163.827,285.438 163.884,285.779 163.753 C 286.746 163.382,286.511 162.979,285.300 162.932 C 284.695 162.908,284.517 162.973,284.905 163.075 M286.618 163.971 C 286.492 164.175,286.751 164.457,287.194 164.598 C 287.637 164.739,288.013 165.157,288.028 165.527 C 288.051 166.064,288.119 166.038,288.368 165.400 C 288.794 164.309,287.209 163.015,286.618 163.971 M368.882 164.383 C 369.158 164.824,369.602 165.269,369.871 165.372 C 370.626 165.662,370.083 164.645,369.183 164.082 C 368.443 163.620,368.420 163.643,368.882 164.383 M330.000 164.874 C 330.000 165.079,330.165 165.145,330.366 165.021 C 330.567 164.897,330.792 164.958,330.866 165.158 C 330.940 165.358,331.211 165.291,331.469 165.011 C 331.839 164.608,331.733 164.500,330.969 164.500 C 330.436 164.500,330.000 164.668,330.000 164.874 M131.308 167.390 C 130.908 167.845,130.951 167.939,131.541 167.894 C 131.940 167.864,132.267 167.606,132.267 167.320 C 132.267 166.656,131.932 166.681,131.308 167.390 M243.200 168.013 C 243.200 168.226,242.930 168.400,242.600 168.400 C 242.270 168.400,242.000 168.580,242.000 168.800 C 242.000 169.318,242.103 169.307,243.371 168.649 C 244.195 168.221,244.295 168.045,243.816 167.862 C 243.477 167.732,243.200 167.799,243.200 168.013 M128.400 169.024 C 128.400 169.367,128.220 169.536,128.000 169.400 C 127.780 169.264,127.600 169.343,127.600 169.576 C 127.600 170.237,128.156 170.077,128.907 169.200 C 129.480 168.531,129.495 168.400,128.996 168.400 C 128.668 168.400,128.400 168.681,128.400 169.024 M184.200 170.400 C 184.064 170.620,184.334 170.800,184.800 170.800 C 185.266 170.800,185.536 170.620,185.400 170.400 C 185.264 170.180,184.994 170.000,184.800 170.000 C 184.606 170.000,184.336 170.180,184.200 170.400 M312.700 174.847 C 311.875 175.264,311.203 175.830,311.206 176.103 C 311.211 176.460,311.295 176.472,311.506 176.146 C 311.668 175.897,312.568 175.434,313.506 175.119 C 314.444 174.803,315.089 174.422,314.939 174.272 C 314.586 173.919,314.477 173.947,312.700 174.847 M387.045 175.127 C 386.772 175.569,389.099 176.910,389.601 176.599 C 389.820 176.464,390.000 176.500,390.000 176.680 C 390.000 176.860,390.361 177.233,390.801 177.508 C 391.444 177.910,391.583 177.909,391.501 177.504 C 391.407 177.034,390.462 176.437,389.991 176.550 C 389.875 176.577,389.347 176.195,388.815 175.700 C 387.784 174.739,387.368 174.604,387.045 175.127 M115.100 176.502 C 113.835 177.175,112.800 177.899,112.800 178.109 C 112.800 178.320,113.255 178.194,113.811 177.829 C 114.368 177.465,114.998 177.275,115.211 177.407 C 115.425 177.539,115.600 177.367,115.600 177.024 C 115.600 176.681,115.915 176.394,116.300 176.387 C 116.685 176.380,117.349 176.110,117.776 175.787 C 119.120 174.771,117.575 175.184,115.100 176.502 M228.000 176.639 C 227.450 176.947,227.045 177.379,227.100 177.599 C 227.155 177.820,226.990 178.000,226.733 178.000 C 226.477 178.000,226.382 178.116,226.524 178.257 C 226.665 178.398,227.359 177.948,228.066 177.257 C 229.480 175.875,229.473 175.814,228.000 176.639 M350.990 177.048 C 351.347 177.404,351.759 177.574,351.907 177.426 C 352.056 177.278,351.912 176.989,351.588 176.784 C 350.643 176.187,350.287 176.344,350.990 177.048 M159.200 178.787 C 159.200 179.001,159.470 179.071,159.800 178.945 C 160.180 178.799,160.400 178.950,160.400 179.357 C 160.400 179.711,160.586 180.000,160.814 180.000 C 161.095 180.000,161.090 179.742,160.800 179.200 C 160.364 178.384,159.200 178.084,159.200 178.787 M274.003 179.500 C 274.005 179.665,274.455 180.008,275.003 180.262 C 276.158 180.798,276.316 180.528,275.300 179.757 C 274.509 179.157,273.998 179.056,274.003 179.500 M221.733 180.533 C 221.733 180.827,221.965 181.067,222.249 181.067 C 222.533 181.067,222.682 180.932,222.580 180.767 C 222.478 180.603,222.621 180.377,222.898 180.266 C 223.174 180.154,223.025 180.049,222.567 180.032 C 222.108 180.014,221.733 180.240,221.733 180.533 M256.288 183.602 C 255.542 184.189,255.214 184.270,255.066 183.902 C 254.921 183.542,254.854 183.535,254.832 183.876 C 254.788 184.537,255.717 185.049,255.910 184.471 C 255.996 184.212,256.302 184.000,256.591 184.000 C 256.879 184.000,257.218 183.730,257.345 183.400 C 257.646 182.616,257.509 182.642,256.288 183.602 M335.411 184.783 C 335.281 184.993,334.910 185.064,334.587 184.940 C 334.264 184.816,334.000 184.914,334.000 185.157 C 334.000 185.823,335.480 185.690,335.745 185.000 C 336.001 184.332,335.778 184.188,335.411 184.783 M218.400 230.224 C 218.400 260.404,218.534 275.564,218.800 275.400 C 219.063 275.238,219.200 259.663,219.200 229.976 C 219.200 200.125,219.064 184.800,218.800 184.800 C 218.536 184.800,218.400 200.208,218.400 230.224 M284.800 185.991 C 284.800 186.165,285.245 186.392,285.788 186.496 C 286.331 186.599,286.694 186.552,286.594 186.390 C 286.328 185.960,284.800 185.620,284.800 185.991 M288.666 187.933 C 288.740 188.226,288.800 188.541,288.800 188.633 C 288.800 188.725,288.950 188.800,289.133 188.800 C 289.317 188.800,289.467 188.538,289.467 188.218 C 289.467 187.897,289.332 187.718,289.167 187.820 C 289.003 187.922,288.792 187.869,288.700 187.702 C 288.607 187.536,288.592 187.640,288.666 187.933 M176.072 188.308 C 175.741 188.419,175.954 188.698,176.640 189.054 C 177.477 189.489,177.839 189.512,178.168 189.153 C 178.488 188.805,178.454 188.766,178.039 189.002 C 177.694 189.200,177.310 189.094,177.039 188.726 C 176.798 188.398,176.362 188.210,176.072 188.308 M133.596 189.004 C 133.057 189.655,133.480 189.791,134.343 189.244 C 134.672 189.035,134.729 188.804,134.488 188.654 C 134.269 188.519,133.868 188.677,133.596 189.004 M327.400 189.200 C 327.536 189.420,327.457 189.600,327.224 189.600 C 326.991 189.600,326.800 189.782,326.800 190.003 C 326.800 190.247,327.107 190.215,327.574 189.923 C 328.339 189.445,328.327 188.800,327.553 188.800 C 327.333 188.800,327.264 188.980,327.400 189.200 M325.200 190.424 C 325.200 190.657,325.020 190.736,324.800 190.600 C 324.580 190.464,324.400 190.554,324.400 190.800 C 324.400 191.046,324.220 191.136,324.000 191.000 C 323.780 190.864,323.600 190.943,323.600 191.176 C 323.600 191.717,324.672 191.730,325.004 191.193 C 325.142 190.970,325.421 190.889,325.623 191.014 C 325.825 191.139,325.884 190.962,325.753 190.621 C 325.478 189.906,325.200 189.806,325.200 190.424 M237.900 194.833 C 237.515 195.255,237.381 195.600,237.603 195.600 C 237.872 195.600,238.004 212.046,238.000 244.900 C 237.997 272.015,237.995 294.425,237.997 294.700 C 237.999 294.975,238.181 295.200,238.403 295.200 C 238.671 295.200,238.803 278.315,238.797 244.600 C 238.792 216.770,238.746 194.015,238.694 194.033 C 238.642 194.052,238.285 194.412,237.900 194.833 M319.004 194.793 C 318.866 195.017,318.942 195.200,319.174 195.200 C 319.463 195.200,319.627 203.792,319.700 222.700 L 319.806 250.200 319.903 222.524 C 319.993 196.907,319.878 193.379,319.004 194.793 M186.583 212.000 C 186.583 221.130,186.635 224.865,186.700 220.300 C 186.764 215.735,186.764 208.265,186.700 203.700 C 186.635 199.135,186.583 202.870,186.583 212.000 M183.969 230.300 C 183.953 230.465,183.877 230.925,183.802 231.322 C 183.691 231.903,183.775 231.953,184.228 231.577 C 184.538 231.320,184.702 230.965,184.593 230.789 C 184.484 230.613,184.621 230.377,184.898 230.266 C 185.201 230.144,185.122 230.051,184.700 230.032 C 184.315 230.014,183.986 230.135,183.969 230.300 M138.533 237.782 C 138.533 238.103,138.678 238.275,138.855 238.166 C 139.032 238.056,139.636 238.267,140.196 238.634 C 141.123 239.242,141.191 239.243,140.964 238.650 C 140.827 238.293,140.464 238.000,140.157 238.000 C 139.851 238.000,139.600 237.820,139.600 237.600 C 139.600 237.380,139.360 237.200,139.067 237.200 C 138.773 237.200,138.533 237.462,138.533 237.782 M145.600 241.429 C 145.600 241.554,145.870 241.927,146.200 242.257 C 146.851 242.908,146.933 242.811,146.557 241.833 C 146.329 241.238,145.600 240.930,145.600 241.429 M109.200 243.685 C 109.200 243.858,109.455 244.000,109.767 244.000 C 110.078 244.000,110.393 244.174,110.467 244.387 C 110.552 244.634,110.818 244.636,111.200 244.393 C 111.708 244.071,111.688 244.011,111.076 244.006 C 110.678 244.003,110.457 243.831,110.585 243.624 C 110.713 243.418,110.453 243.276,110.009 243.309 C 109.564 243.343,109.200 243.512,109.200 243.685 M149.346 243.802 C 150.805 244.563,151.175 244.568,150.176 243.813 C 149.749 243.490,149.130 243.221,148.800 243.215 C 148.470 243.210,148.716 243.474,149.346 243.802 M159.817 244.372 C 159.544 244.814,160.175 245.292,160.544 244.922 C 160.925 244.542,160.854 244.000,160.424 244.000 C 160.217 244.000,159.944 244.168,159.817 244.372 M158.400 245.124 C 158.400 245.339,158.685 245.624,159.033 245.757 C 159.423 245.907,159.606 245.818,159.508 245.525 C 159.309 244.927,158.400 244.598,158.400 245.124 M153.428 245.955 C 153.308 246.150,153.554 246.399,153.975 246.509 C 154.511 246.649,154.676 246.543,154.527 246.155 C 154.286 245.525,153.754 245.428,153.428 245.955 M119.200 249.055 C 119.200 249.799,120.712 250.406,120.960 249.760 C 121.096 249.405,121.021 249.263,120.778 249.414 C 120.551 249.554,120.103 249.451,119.782 249.185 C 119.462 248.920,119.200 248.861,119.200 249.055 M192.921 251.898 C 195.077 251.971,198.497 251.970,200.521 251.898 C 202.544 251.825,200.780 251.766,196.600 251.767 C 192.420 251.767,190.764 251.826,192.921 251.898 M180.653 255.391 C 179.934 255.936,179.938 255.955,180.753 255.894 C 181.219 255.858,181.600 255.598,181.600 255.315 C 181.600 254.686,181.582 254.688,180.653 255.391 M147.200 265.300 C 147.200 265.591,147.560 265.829,148.000 265.829 C 148.440 265.829,148.800 265.783,148.800 265.728 C 148.800 265.673,148.440 265.435,148.000 265.200 C 147.388 264.872,147.200 264.896,147.200 265.300 M156.000 269.600 L 155.000 269.920 156.076 269.960 C 156.668 269.982,157.264 269.820,157.400 269.600 C 157.681 269.145,157.420 269.145,156.000 269.600 M18.832 276.300 L 19.392 277.200 118.264 277.200 C 172.643 277.200,217.396 277.300,217.715 277.423 C 218.063 277.556,218.371 277.356,218.484 276.923 C 218.666 276.227,214.949 276.204,119.079 276.302 C 39.707 276.383,19.363 276.301,18.879 275.902 C 18.341 275.457,18.335 275.503,18.832 276.300 " stroke="none" fill="#7365f0" fill-rule="evenodd"></path></g></svg>